<svg xmlns="http://www.w3.org/2000/svg" width="394.799" height="264.032" viewBox="0 0 394.799 264.032"><defs><style>.a{opacity:0.4;}.b,.o{opacity:0.1;}.c{fill:#ecd54a;}.d{fill:#ffd559;}.e{fill:#f4bf3b;}.f{fill:#ffe299;}.g{fill:#587bc9;}.h{fill:#bcbec0;}.i{fill:#504a45;}.j{fill:#66594a;}.k{fill:#fff;}.l{fill:#eac5b0;}.m{fill:#d7e8f4;}.n{fill:#3b455a;}.p{fill:#394860;}.q{fill:#305399;}.r{fill:#8c9295;}.s{fill:#c9947d;}.t{fill:#dbad95;}.u{fill:#ffd8c5;}.v{fill:#ba7f6a;}</style></defs><g class="a"><g transform="translate(76.269 0)"><g transform="translate(0 0)"><g class="b" transform="translate(0 2.702)"><g transform="translate(0 0)"><circle cx="26.832" cy="26.832" r="26.832" transform="translate(0 37.947) rotate(-45)"/></g></g><g transform="translate(1.501)"><circle class="c" cx="26.832" cy="26.832" r="26.832" transform="translate(0 37.947) rotate(-45)"/></g><g transform="translate(7.243 5.742)"><circle class="d" cx="22.772" cy="22.772" r="22.772" transform="translate(0 32.205) rotate(-45)"/></g><g transform="translate(20.258 18.51)"><path class="e" d="M2043,88.367a22.776,22.776,0,0,1-31.1,31.675A22.774,22.774,0,1,0,2043,88.367Z" transform="translate(-2011.898 -88.367)"/></g><g transform="translate(19.168 17.693)"><path class="f" d="M2009.764,107.983A20.1,20.1,0,0,1,2045.8,95.729,20.1,20.1,0,1,0,2012.435,118,20.01,20.01,0,0,1,2009.764,107.983Z" transform="translate(-2008.268 -85.646)"/></g><path class="g" d="M2060.474,104.147v2.9a6.108,6.108,0,0,1,2.857,1.155,8.844,8.844,0,0,1,2.117,2.679l-2.886,1.613a3.861,3.861,0,0,0-3.4-2.368,3.117,3.117,0,0,0-2.161.77,2.476,2.476,0,0,0-.858,1.924,2.369,2.369,0,0,0,.7,1.747,10.072,10.072,0,0,0,2.753,1.613,27.586,27.586,0,0,1,2.96,1.532,7.883,7.883,0,0,1,1.761,1.384,6.2,6.2,0,0,1,1.673,4.367,6.989,6.989,0,0,1-1.51,4.44,7.3,7.3,0,0,1-4,2.576v3.064h-2.59v-2.975a7.874,7.874,0,0,1-4.426-2,9.54,9.54,0,0,1-2.25-4.707l3.256-.681a7.608,7.608,0,0,0,1.629,3.212,3.82,3.82,0,0,0,2.679.918,3.781,3.781,0,0,0,2.724-1.051,3.547,3.547,0,0,0,1.081-2.679,3.154,3.154,0,0,0-.9-2.354,8.407,8.407,0,0,0-1.354-.969,23.245,23.245,0,0,0-2.287-1.177,11.066,11.066,0,0,1-3.774-2.368,5.927,5.927,0,0,1-1.1-5.847,5.423,5.423,0,0,1,.984-1.665,6.111,6.111,0,0,1,1.591-1.3,8.561,8.561,0,0,1,2.146-.858v-2.9Z" transform="translate(-2019.146 -80.898)"/></g></g><path class="h" d="M1862.225,525.223l-15.914-7.507L1839.4,500l-5.4,1.2,4.8,21.619,14.713,12.011Z" transform="translate(-1790.89 -357.888)"/><path class="g" d="M2624.258,263l-9.608,3.6-22.521,26.124L2567.507,266,2560,272.308l21.92,33.33,18.917,3Z" transform="translate(-2298.895 -192.053)"/><g transform="translate(130.488 52.872)"><g transform="translate(0 10.869)"><g transform="translate(17.206 96.116)"><path class="i" d="M2183.056,856.76l-.755,2.946,4.861,4.551,3.564-2.143-2.053-3.748-4.861-4.551Z" transform="translate(-2182.301 -765.32)"/><path class="j" d="M2198.677,559.1l-2.294,8.946,3.413,32.446L2184.648,649.5l5.271,2.761L2212,605.516l4.484-13.894,4.48-30.172Z" transform="translate(-2183.943 -559.098)"/></g><g transform="translate(42.873 98.851)"><path class="j" d="M2296.139,574.347l-7.03,85.537-5.369.3-4.033-54.348-11.925-37.634Z" transform="translate(-2267.782 -568.205)"/><path class="i" d="M2320.9,871.53l.172,3.049,5.979,2.721,2.731-3.212-3.075-2.885Z" transform="translate(-2304.953 -780.222)"/></g><g transform="translate(20.857 16.383)"><path class="k" d="M2201.515,363.636c4.593-30.185,2.953-52.167,3.191-58.2a12.529,12.529,0,0,1,4.476-9.169c1.859-.414,3.477-1.611,5.354-2.083,12.7-3.2,19.627,6.5,24.381,16.961a299.883,299.883,0,0,1,14.758,39.787c3.491,11.922,6.991,23.952,8.456,36.325.6,5.105,1.108,9.947-4.482,12.2-8.906,3.589-18.916,3.511-28.323,4.661-10.806,1.322-21.628,2.287-32.506,2.74C2191.142,407.089,2196.922,393.821,2201.515,363.636Z" transform="translate(-2194.462 -293.56)"/></g><path class="k" d="M2160.732,257.917l-6.005,3.6-16.215,7.507L2135.81,239l-8.2.338-2.605,39.3,11.11,7.206,24.622-9.308Z" transform="translate(-2125 -239)"/><path class="k" d="M2287.488,294.608l11.864,2.22s21.019,21.019,21.019,21.319,20.418,6.606,20.418,6.606l-.9,6.005-21.92-3.9-24.021-17.115Z" transform="translate(-2238.698 -277.911)"/></g><path class="l" d="M2129.2,215.509l-4.2-3.9V205l4.8.6.6,4.5,3.6,3.6.3,1.5Z" transform="translate(-2125 -204.34)"/><path class="m" d="M2252.667,294.908s.4,9.509,6.105,9.809,9.008-2.4,8.708-5.705a7.749,7.749,0,0,0-1.932-4.822S2258.572,291.1,2252.667,294.908Z" transform="translate(-2214.332 -265.922)"/><path class="n" d="M2285.73,230.466a8.641,8.641,0,0,1-4.576-5.989q-.1-.724-.229-1.371v0c-1.172-6.013-3.7-7.211-3.7-7.211h0a7.689,7.689,0,0,0-3.044-1.532,8.914,8.914,0,0,0-2.906,6.079l-.251,0a8.236,8.236,0,0,1,3.046.678c.735,5.193,1.854,13.457,1.895,15.871.06,3.6.912,3.67,3.334,4.459a5.285,5.285,0,0,0,4.028-.63h0C2286.629,240.064,2290.235,232.568,2285.73,230.466Z" transform="translate(-2227.178 -210.889)"/><g transform="translate(35.594 7.688)"><path class="l" d="M2259.33,232.934c-3.806-8.29-14.284-4.091-15.647,3.727-.775,4.446,1.583,12.172,6.891,12.245.267.751.726,2.17,1.441,2.539.775.4,2.649-.63,3.389-1.007a1.245,1.245,0,0,0,.536-.422,2.339,2.339,0,0,0-.093-1.377,7.433,7.433,0,0,0,1.682-.789,8.67,8.67,0,0,0,3.687-6.99A17.4,17.4,0,0,0,2259.33,232.934Z" transform="translate(-2243.539 -228.406)"/></g><path class="n" d="M2223.808,213.558c5.98-2.156,4.27-6.833,4.27-6.833-4.9-7.033-15.383-2.466-15.383-2.466a14.078,14.078,0,0,0-6.508,9.544c-.094.593-.164,1.151-.216,1.679a44.05,44.05,0,0,0-.315,6.9,7.882,7.882,0,0,1-1.671,5.675c-2.822,3.612.625,5.207,2.017,6.269s-1.334,9.217,8.981,6.143c6.734-3.476,8.313-3.488,5.819-7.148h0c-1.064-1.768-3.495-4.179-4.6-7.314C2214.469,221.064,2217.828,215.714,2223.808,213.558Z" transform="translate(-2179.514 -202.802)"/><path class="o" d="M2195.462,565.774l2.969-14.665s4.277-11.4,19.29-12.3,26.724,6.005,30.027,6.005,10.113-6.005,11.062-2.4,6.053,31.528,6.053,31.528H2194Z" transform="translate(-2173.281 -437.861)"/></g><g transform="translate(56.928 142.112)"><path class="p" d="M1950.955,755.048v34.678h-5.234l-3.272-20.938-2.944-16.03Z" transform="translate(-1921.643 -676.862)"/><path class="p" d="M1910.534,748.4l-1.963,15.049-2.617,24.209-5.234-.327V768.683l-2.617-18.975Z" transform="translate(-1892.673 -673.813)"/><path class="h" d="M1900.335,579.989s5.562-.982,7.852,7.524,8.506,33.369,8.833,46.455-8.179,4.58-18.321,6.216-18.484,1.8-18.484-4.089S1876.617,580.152,1900.335,579.989Z" transform="translate(-1880.021 -555.946)"/><g transform="translate(2.266)"><g transform="translate(5.992 4.751)"><path class="l" d="M1922.142,519.632c-4.3-7.579-13.925-2.729-14.585,4.821-.375,4.294,2.5,11.453,7.555,11.09.316.693.867,2.006,1.578,2.3.77.317,2.469-.816,3.143-1.235a1.189,1.189,0,0,0,.476-.445,2.231,2.231,0,0,0-.2-1.3,7.109,7.109,0,0,0,1.536-.888,8.281,8.281,0,0,0,2.938-6.951A16.617,16.617,0,0,0,1922.142,519.632Z" transform="translate(-1907.524 -515.824)"/></g><path class="q" d="M1902.18,506.59s-6.876,1.719-6.876,4.584c0,4.307-.286,7.2,0,9.759l-4.871-2.883-2.865-8.022s.573-6.59,4.011-7.736a93.577,93.577,0,0,1,10.6-2.292l5.444,1.719,4.011-.286-1.387,12.033S1908.483,504.871,1902.18,506.59Z" transform="translate(-1887.568 -500)"/></g><path class="r" d="M1967.727,875.874l2.944,2.944-1.309,1.963-5.889-1.963v-2.944Z" transform="translate(-1938.415 -763.01)"/><path class="r" d="M1905.844,878.436l-1.09,4.307-3.6,1.309-1.963-.982,3.047-4.86Z" transform="translate(-1893.436 -764.645)"/><path class="o" d="M1881.15,665.234l.529-6.446s4.425-8.267,15.835-7.066,16.5,7.38,16.5,7.38l2.719,13.339H1881Z" transform="translate(-1880.706 -606.081)"/></g><g transform="translate(287.375 70.97)"><g transform="translate(10.516 64.512)"><path class="r" d="M2683.64,481.926l-1.133,48.342,8.371,62.446,7.006.083,5.107-57.468,10.269-57.406Z" transform="translate(-2682.507 -477.923)"/><path class="q" d="M2707.031,857.5l-.045,3.788-7.621,3.7-3.743-3.833,3.833-3.743Z" transform="translate(-2691.684 -743.464)"/><path class="q" d="M2798.973,863.791l-6.024,5.12,1.506,3.012,11.144-2.41v-5.723Z" transform="translate(-2759.787 -747.926)"/><path class="r" d="M2767.186,539.48l5.007,46.857,6.607,46.706,9.423-.448-.344-48.452,5.672-44.939L2780.229,533Z" transform="translate(-2741.76 -516.461)"/></g><path class="g" d="M2685.363,263.129s-12.588,6.013-23.361,29.705c-10.971,24.126-14.516,57.575-14.516,57.575s64,20.242,64.169,9.134c0,0,14.474-87.885-14.31-94.111C2696.035,265.149,2686.153,262.681,2685.363,263.129Z" transform="translate(-2647.485 -263.075)"/><path class="k" d="M2709.2,264.125c-6.628,11.367-12.878,24.825-19.633,36.118-4,6.691-5.071,14.115-6.558,21.629q-2.217,11.207-4.434,22.413-.937,4.735-1.874,9.47l27,6.7c-.305-9.342-.841-18.678-.973-28.025-.122-8.62-.793-18.374,1.946-26.665,1.333-4.036,2.728-8.06,4.082-12.093,2.484-7.4,4.205-15.083,6.754-22.459a38.35,38.35,0,0,0,.126-5.6Z" transform="translate(-2667.928 -263.81)"/><g class="b" transform="translate(1.055 48.263)"><path d="M2653.454,441.183l2.045-8.668a44.529,44.529,0,0,1,26.729-8.708c14.713,0,25.223,4.8,30.027,4.8a6.877,6.877,0,0,1,6.4,3.884l-1.73,21.1L2651,453.534Z" transform="translate(-2651 -423.807)"/></g></g><g transform="translate(38.722 191.647)"><path class="s" d="M1847.607,858.874h-5.474a2.147,2.147,0,0,1-2.148-2.145l-4.7-15.947a2.147,2.147,0,0,1,2.148-2.145l11.987,3.614a2.147,2.147,0,0,1,2.148,2.146l-1.809,12.333A2.147,2.147,0,0,1,1847.607,858.874Z" transform="translate(-1830.509 -786.489)"/><path class="s" d="M1992.895,858.874h5.474a2.147,2.147,0,0,0,2.148-2.145l4.7-15.947a2.147,2.147,0,0,0-2.148-2.145l-11.988,3.614a2.147,2.147,0,0,0-2.148,2.146l1.809,12.333A2.147,2.147,0,0,0,1992.895,858.874Z" transform="translate(-1938.027 -786.489)"/><path class="l" d="M1858.221,676.577v5.712h-5.289v-5.712c-22.087,1.141-33.543,16.592-33.543,34.261,0,18.362,16.2,33.248,36.187,33.248s36.187-14.885,36.187-33.248C1891.763,693.169,1880.329,677.717,1858.221,676.577Z" transform="translate(-1819.389 -673.092)"/><g transform="translate(2.18)"><path class="l" d="M1829.786,664.971a.365.365,0,0,0-.343.167,21.446,21.446,0,0,0,1.574,23.458.362.362,0,0,0,.472.1l16.474-9.55a.362.362,0,0,0,.148-.461C1848.056,678.558,1842.371,666.247,1829.786,664.971Z" transform="translate(-1826.651 -664.97)"/><path class="l" d="M1994.7,665.138a.368.368,0,0,0-.342-.167c-12.585,1.275-18.271,13.586-18.327,13.711a.362.362,0,0,0,.148.461l16.474,9.55a.362.362,0,0,0,.472-.1A21.445,21.445,0,0,0,1994.7,665.138Z" transform="translate(-1931.155 -664.97)"/></g><ellipse class="t" cx="14.184" cy="10.591" rx="14.184" ry="10.591" transform="translate(22.003 31.743)"/><g transform="translate(2.488 6.836)"><path class="u" d="M1855.9,691.216v-3.481c-15.906,1.722-28.22,13.616-28.22,28.035a25.991,25.991,0,0,0,6.676,17.221,25.517,25.517,0,0,1-4.279-14.08C1830.073,705.225,1841.167,693.814,1855.9,691.216Z" transform="translate(-1827.676 -687.735)"/></g><path class="t" d="M1848.594,786.243h0a37.5,37.5,0,0,0,27.418,11.549c19.986,0,36.187-14.886,36.187-33.248a37.851,37.851,0,0,0-1.654-11.215C1897.791,807.315,1848.594,786.243,1848.594,786.243Z" transform="translate(-1839.825 -726.798)"/><path class="s" d="M1931.456,800.546c-6.454,10.581-17.862,9.957-23.659,9.389a17.017,17.017,0,0,0,9.641,2.825c7.834,0,14.184-4.742,14.184-10.591A8.044,8.044,0,0,0,1931.456,800.546Z" transform="translate(-1881.251 -759.836)"/><path class="u" d="M1833.319,670.744s-3.167,3.3-2.957,11.7c0,0,1.041-8.858,5.467-11.243Z" transform="translate(-1827.061 -669.01)"/><path class="l" d="M1896.094,785.01a10.868,10.868,0,0,1,8.722-8.177A22.319,22.319,0,0,0,1896.094,785.01Z" transform="translate(-1873.062 -743.244)"/><path class="v" d="M1997.649,887.374a2.141,2.141,0,0,0,1.342.471h5.474a2.147,2.147,0,0,0,2.148-2.145l1.67-5.66C2004.186,884.783,2000.167,886.644,1997.649,887.374Z" transform="translate(-1944.123 -815.461)"/><g transform="translate(29.471 39.59)"><path class="n" d="M1920.123,798.995c0,1.2-.579,2.175-1.293,2.175s-1.292-.974-1.292-2.175.579-2.176,1.292-2.176S1920.123,797.793,1920.123,798.995Z" transform="translate(-1917.538 -796.819)"/><g transform="translate(10.847)"><path class="n" d="M1956.247,798.995c0,1.2-.579,2.175-1.293,2.175s-1.292-.974-1.292-2.175.579-2.176,1.292-2.176S1956.247,797.793,1956.247,798.995Z" transform="translate(-1953.662 -796.819)"/></g></g></g><g transform="translate(127.739 157.128)"><g transform="translate(0)"><path class="s" d="M2157.518,836.384h-8.083a3.171,3.171,0,0,1-3.173-3.169l-6.948-23.551a3.171,3.171,0,0,1,3.173-3.169l17.7,5.337a3.171,3.171,0,0,1,3.173,3.169l-2.672,18.214A3.171,3.171,0,0,1,2157.518,836.384Z" transform="translate(-2132.266 -729.48)"/><path class="s" d="M2372.092,836.384h8.084a3.171,3.171,0,0,0,3.173-3.169l6.948-23.551a3.171,3.171,0,0,0-3.173-3.169l-17.7,5.337a3.171,3.171,0,0,0-3.173,3.169l2.672,18.214A3.171,3.171,0,0,0,2372.092,836.384Z" transform="translate(-2291.058 -729.48)"/><path class="l" d="M2173.193,567.153v8.436h-7.812v-8.436c-32.62,1.685-49.539,24.5-49.539,50.6,0,27.119,23.928,49.1,53.444,49.1s53.444-21.984,53.444-49.1C2222.731,591.657,2205.844,568.836,2173.193,567.153Z" transform="translate(-2115.843 -562.006)"/><g transform="translate(3.22)"><path class="l" d="M2131.2,550.013a.541.541,0,0,0-.506.246c-.107.171-10.611,17.218,2.325,34.645a.536.536,0,0,0,.7.144l24.33-14.105a.534.534,0,0,0,.219-.681C2158.181,570.078,2149.784,551.9,2131.2,550.013Z" transform="translate(-2126.568 -550.01)"/><path class="l" d="M2374.76,550.259a.545.545,0,0,0-.506-.246c-18.587,1.883-26.983,20.065-27.066,20.249a.533.533,0,0,0,.219.681l24.329,14.105a.535.535,0,0,0,.7-.144C2385.37,567.476,2374.867,550.43,2374.76,550.259Z" transform="translate(-2280.909 -550.011)"/></g><ellipse class="t" cx="20.949" cy="15.641" rx="20.949" ry="15.641" transform="translate(32.496 46.88)"/><g transform="translate(3.675 10.096)"><path class="u" d="M2169.759,588.773v-5.141c-23.49,2.543-41.677,20.109-41.677,41.4a38.387,38.387,0,0,0,9.86,25.433,37.692,37.692,0,0,1-6.32-20.795C2131.622,609.463,2148.007,592.609,2169.759,588.773Z" transform="translate(-2128.082 -583.632)"/></g><path class="t" d="M2158.975,729.117h0a55.386,55.386,0,0,0,40.493,17.057c29.516,0,53.444-21.984,53.444-49.1a55.9,55.9,0,0,0-2.443-16.563C2231.633,760.237,2158.975,729.117,2158.975,729.117Z" transform="translate(-2146.024 -641.323)"/><path class="s" d="M2281.354,750.24c-9.531,15.627-26.38,14.705-34.941,13.867a25.136,25.136,0,0,0,14.238,4.172c11.57,0,20.949-7,20.949-15.641A11.845,11.845,0,0,0,2281.354,750.24Z" transform="translate(-2207.206 -690.117)"/><path class="u" d="M2136.416,558.537s-4.677,4.877-4.367,17.276c0,0,1.538-13.082,8.075-16.6Z" transform="translate(-2127.173 -555.977)"/><path class="l" d="M2229.128,727.3s1.712-9.735,12.881-12.077A32.962,32.962,0,0,0,2229.128,727.3Z" transform="translate(-2195.112 -665.612)"/><path class="v" d="M2379.113,878.475a3.16,3.16,0,0,0,1.982.7h8.084a3.171,3.171,0,0,0,3.173-3.169l2.466-8.359C2388.768,874.648,2382.832,877.4,2379.113,878.475Z" transform="translate(-2300.061 -772.268)"/></g><g transform="translate(43.526 58.471)"><path class="n" d="M2264.616,747.95c0,1.774-.855,3.213-1.909,3.213s-1.909-1.439-1.909-3.213.855-3.213,1.909-3.213S2264.616,746.176,2264.616,747.95Z" transform="translate(-2260.798 -744.737)"/><g transform="translate(16.02)"><path class="n" d="M2317.967,747.95c0,1.774-.854,3.213-1.909,3.213s-1.909-1.439-1.909-3.213.854-3.213,1.909-3.213S2317.967,746.176,2317.967,747.95Z" transform="translate(-2314.149 -744.737)"/></g></g></g><g transform="translate(254.582 123.795)"><g transform="translate(0)"><path class="s" d="M2592.944,814.666h-10.6a4.16,4.16,0,0,1-4.162-4.157l-9.114-30.895a4.16,4.16,0,0,1,4.162-4.157l23.224,7a4.16,4.16,0,0,1,4.163,4.157l-3.505,23.893A4.16,4.16,0,0,1,2592.944,814.666Z" transform="translate(-2559.818 -674.43)"/><path class="s" d="M2874.423,814.666h10.6a4.16,4.16,0,0,0,4.163-4.157l9.114-30.895a4.159,4.159,0,0,0-4.162-4.157l-23.224,7a4.159,4.159,0,0,0-4.162,4.157l3.505,23.893A4.16,4.16,0,0,0,2874.423,814.666Z" transform="translate(-2768.122 -674.43)"/><path class="l" d="M2613.507,461.488v11.067H2603.26V461.488c-42.792,2.21-64.985,32.145-64.985,66.378,0,35.575,31.389,64.413,70.108,64.413s70.108-28.839,70.108-64.413C2678.491,493.632,2656.338,463.7,2613.507,461.488Z" transform="translate(-2538.275 -454.735)"/><g transform="translate(4.224)"><path class="l" d="M2558.417,439a.708.708,0,0,0-.663.323c-.141.224-13.919,22.586,3.05,45.447a.7.7,0,0,0,.915.189l31.916-18.5a.7.7,0,0,0,.288-.893C2593.814,465.325,2582.8,441.473,2558.417,439Z" transform="translate(-2552.343 -439)"/><path class="l" d="M2877.923,439.326a.714.714,0,0,0-.664-.323c-24.383,2.47-35.4,26.322-35.506,26.562a.7.7,0,0,0,.288.893l31.916,18.5a.7.7,0,0,0,.915-.189C2891.841,461.912,2878.063,439.55,2877.923,439.326Z" transform="translate(-2754.809 -439)"/></g><ellipse class="t" cx="27.48" cy="20.518" rx="27.48" ry="20.518" transform="translate(42.628 61.498)"/><g transform="translate(4.821 13.244)"><path class="u" d="M2609,489.85v-6.745c-30.815,3.335-54.673,26.38-54.673,54.314a50.355,50.355,0,0,0,12.934,33.364,49.443,49.443,0,0,1-8.29-27.279C2558.974,516.99,2580.467,494.882,2609,489.85Z" transform="translate(-2554.33 -483.105)"/></g><path class="t" d="M2594.856,673.954h0c12.856,13.7,31.885,22.375,53.119,22.375,38.72,0,70.108-28.839,70.108-64.413a73.341,73.341,0,0,0-3.2-21.728C2690.169,714.777,2594.856,673.954,2594.856,673.954Z" transform="translate(-2577.866 -558.785)"/><path class="s" d="M2755.392,701.662c-12.5,20.5-34.606,19.291-45.837,18.191a32.973,32.973,0,0,0,18.678,5.473c15.177,0,27.481-9.186,27.481-20.518A15.577,15.577,0,0,0,2755.392,701.662Z" transform="translate(-2658.125 -622.792)"/><path class="u" d="M2565.263,450.186s-6.135,6.4-5.728,22.662c0,0,2.017-17.162,10.593-21.782Z" transform="translate(-2553.137 -446.827)"/><path class="l" d="M2686.882,671.565s2.246-12.771,16.9-15.842C2703.78,655.723,2694.152,660.013,2686.882,671.565Z" transform="translate(-2642.26 -590.647)"/><path class="v" d="M2883.633,869.882a4.147,4.147,0,0,0,2.6.913h10.6a4.16,4.16,0,0,0,4.163-4.157l3.234-10.965C2896.3,864.862,2888.511,868.468,2883.633,869.882Z" transform="translate(-2779.932 -730.559)"/></g><g transform="translate(57.097 76.702)"><path class="n" d="M2733.435,698.658c0,2.328-1.121,4.215-2.5,4.215s-2.5-1.887-2.5-4.215,1.121-4.215,2.5-4.215S2733.435,696.33,2733.435,698.658Z" transform="translate(-2728.427 -694.443)"/><g transform="translate(21.015)"><path class="n" d="M2803.421,698.658c0,2.328-1.121,4.215-2.5,4.215s-2.5-1.887-2.5-4.215,1.121-4.215,2.5-4.215S2803.421,696.33,2803.421,698.658Z" transform="translate(-2798.413 -694.443)"/></g></g></g><g transform="translate(165.449 78.671)"><g transform="translate(0)"><g class="b" transform="translate(0 2.702)"><circle cx="26.832" cy="26.832" r="26.832" transform="translate(0 37.947) rotate(-45)"/></g><g transform="translate(1.501)"><circle class="c" cx="26.832" cy="26.832" r="26.832" transform="translate(0 37.947) rotate(-45)"/></g><g transform="translate(7.243 5.742)"><circle class="d" cx="22.772" cy="22.772" r="22.772" transform="translate(0 32.205) rotate(-45)"/></g><g transform="translate(20.258 18.51)"><path class="e" d="M2340,350.367a22.776,22.776,0,0,1-31.1,31.675,22.774,22.774,0,1,0,31.1-31.675Z" transform="translate(-2308.898 -350.367)"/></g><g transform="translate(19.169 17.693)"><path class="f" d="M2306.765,369.983a20.1,20.1,0,0,1,36.037-12.254A20.1,20.1,0,1,0,2309.436,380,20.01,20.01,0,0,1,2306.765,369.983Z" transform="translate(-2305.268 -347.646)"/></g><path class="g" d="M2357.474,366.147v2.9a6.108,6.108,0,0,1,2.857,1.155,8.844,8.844,0,0,1,2.117,2.679l-2.886,1.613a3.862,3.862,0,0,0-3.4-2.368,3.118,3.118,0,0,0-2.161.77,2.477,2.477,0,0,0-.858,1.924,2.368,2.368,0,0,0,.7,1.747,10.066,10.066,0,0,0,2.753,1.613,27.655,27.655,0,0,1,2.96,1.532,7.9,7.9,0,0,1,1.761,1.384,6.2,6.2,0,0,1,1.673,4.367,6.99,6.99,0,0,1-1.51,4.44,7.3,7.3,0,0,1-4,2.576v3.064h-2.59v-2.975a7.874,7.874,0,0,1-4.426-2,9.54,9.54,0,0,1-2.25-4.707l3.256-.681a7.614,7.614,0,0,0,1.628,3.212,3.822,3.822,0,0,0,2.679.918,3.78,3.78,0,0,0,2.723-1.051,3.547,3.547,0,0,0,1.081-2.679,3.154,3.154,0,0,0-.9-2.353,8.4,8.4,0,0,0-1.355-.969,23.205,23.205,0,0,0-2.287-1.177,11.066,11.066,0,0,1-3.774-2.368,5.928,5.928,0,0,1-1.1-5.847,5.432,5.432,0,0,1,.984-1.665,6.117,6.117,0,0,1,1.592-1.3,8.555,8.555,0,0,1,2.146-.858v-2.9Z" transform="translate(-2316.146 -342.898)"/></g></g><g transform="translate(0 78.371)"><g transform="translate(0 0)"><circle class="c" cx="26.832" cy="26.832" r="26.832" transform="translate(0 37.947) rotate(-45)"/><g transform="translate(10.439 10.439)"><ellipse class="d" cx="22.772" cy="22.772" rx="22.772" ry="22.772" transform="translate(0 10.761) rotate(-13.667)"/></g><g transform="translate(15.191 27.541)"><path class="e" d="M1784.061,379.441a22.776,22.776,0,0,1-43.039,10.881,22.774,22.774,0,1,0,43.039-10.881Z" transform="translate(-1741.022 -379.441)"/></g><g transform="translate(17.77 17.62)"><path class="f" d="M1752.66,358.741a20.1,20.1,0,0,1,37.153,8.273,20.1,20.1,0,1,0-40.082,1.674A20.011,20.011,0,0,1,1752.66,358.741Z" transform="translate(-1749.611 -346.402)"/></g><path class="g" d="M1803.655,372.4l-1.509,2.478a6.107,6.107,0,0,1,1.84,2.472,8.838,8.838,0,0,1,.415,3.389l-3.3-.123a3.862,3.862,0,0,0-1.676-3.793,3.117,3.117,0,0,0-2.246-.466,2.478,2.478,0,0,0-1.734,1.2,2.37,2.37,0,0,0-.314,1.854,10.077,10.077,0,0,0,1.513,2.81,27.593,27.593,0,0,1,1.732,2.848,7.9,7.9,0,0,1,.785,2.1,6.194,6.194,0,0,1-.842,4.6,6.989,6.989,0,0,1-3.6,3.008,7.305,7.305,0,0,1-4.753.122l-1.594,2.617-2.212-1.347,1.547-2.541a7.869,7.869,0,0,1-2.741-4.008,9.541,9.541,0,0,1,.526-5.19l3.136,1.112a7.614,7.614,0,0,0-.28,3.59,3.821,3.821,0,0,0,1.811,2.177,3.778,3.778,0,0,0,2.873.519,3.547,3.547,0,0,0,2.316-1.727,3.153,3.153,0,0,0,.453-2.48,8.357,8.357,0,0,0-.653-1.532,23.206,23.206,0,0,0-1.342-2.194,11.061,11.061,0,0,1-1.992-3.985,5.925,5.925,0,0,1,2.1-5.564,5.421,5.421,0,0,1,1.706-.91,6.116,6.116,0,0,1,2.033-.279,8.566,8.566,0,0,1,2.28.383l1.509-2.478Z" transform="translate(-1756.459 -346.032)"/></g></g><g transform="translate(74.167 100.591)"><g transform="translate(0)"><g transform="translate(0)"><circle class="c" cx="26.832" cy="26.832" r="26.832" transform="translate(0 37.947) rotate(-45)"/></g><g transform="translate(15.174 15.174)"><circle class="d" cx="22.772" cy="22.772" r="22.772"/></g><g transform="translate(32.699 15.156)"><path class="e" d="M2046.591,412.742a22.776,22.776,0,0,1-.262,44.393,22.774,22.774,0,1,0,.262-44.393Z" transform="translate(-2046.329 -412.196)"/></g><g transform="translate(17.612 17.86)"><path class="f" d="M2004.391,455.863a20.1,20.1,0,0,1,17.328-33.89,20.1,20.1,0,1,0-8.434,39.22A20.008,20.008,0,0,1,2004.391,455.863Z" transform="translate(-1996.084 -421.2)"/></g><path class="g" d="M2029.878,448.608l2.021,2.082a6.108,6.108,0,0,1,2.854-1.161,8.838,8.838,0,0,1,3.385.449l-.948,3.168a3.862,3.862,0,0,0-4.093.671,3.117,3.117,0,0,0-1.015,2.057,2.477,2.477,0,0,0,.724,1.979,2.37,2.37,0,0,0,1.716.769,10.087,10.087,0,0,0,3.1-.759,27.6,27.6,0,0,1,3.192-.962,7.9,7.9,0,0,1,2.228-.233,6.2,6.2,0,0,1,4.241,1.969,6.99,6.99,0,0,1,2.009,4.238,7.306,7.306,0,0,1-1.074,4.632l2.134,2.2-1.859,1.8-2.072-2.135a7.871,7.871,0,0,1-4.568,1.648,9.541,9.541,0,0,1-4.893-1.811l1.863-2.756a7.614,7.614,0,0,0,3.405,1.171,3.82,3.82,0,0,0,2.562-1.207,3.78,3.78,0,0,0,1.223-2.651,3.546,3.546,0,0,0-1.09-2.675,3.154,3.154,0,0,0-2.287-1.06,8.381,8.381,0,0,0-1.647.247,23.283,23.283,0,0,0-2.46.748,11.065,11.065,0,0,1-4.358.929,5.926,5.926,0,0,1-4.858-3.433,5.429,5.429,0,0,1-.454-1.88,6.125,6.125,0,0,1,.24-2.038,8.567,8.567,0,0,1,.942-2.111l-2.02-2.082Z" transform="translate(-2000.818 -422.519)"/></g></g><g transform="translate(226.943 1.784)"><g transform="translate(0 0)"><circle class="c" cx="26.832" cy="26.832" r="26.832" transform="translate(0 37.947) rotate(-45)"/><g transform="translate(5.742 5.742)"><circle class="d" cx="22.772" cy="22.772" r="22.772" transform="translate(0 32.205) rotate(-45)"/></g><g transform="translate(22.083 16.293)"><path class="e" d="M2542.763,86.923a22.776,22.776,0,0,1-22.994,37.975,22.774,22.774,0,1,0,22.994-37.975Z" transform="translate(-2519.769 -86.923)"/></g><g transform="translate(17.633 17.734)"><path class="f" d="M2507.462,118.278a20.1,20.1,0,0,1,32.257-20.206,20.1,20.1,0,1,0-27.355,29.344A20.008,20.008,0,0,1,2507.462,118.278Z" transform="translate(-2504.95 -91.722)"/></g><path class="g" d="M2554.369,109.959l.667,2.823a6.109,6.109,0,0,1,3.046.467,8.842,8.842,0,0,1,2.676,2.121l-2.438,2.233a3.862,3.862,0,0,0-3.858-1.523,3.117,3.117,0,0,0-1.926,1.246,2.477,2.477,0,0,0-.393,2.07,2.369,2.369,0,0,0,1.078,1.54,10.081,10.081,0,0,0,3.051.938,27.644,27.644,0,0,1,3.233.811,7.9,7.9,0,0,1,2.032.942,6.2,6.2,0,0,1,2.631,3.865,6.989,6.989,0,0,1-.449,4.668,7.3,7.3,0,0,1-3.3,3.425l.7,2.982-2.521.6-.684-2.9a7.874,7.874,0,0,1-4.767-.928,9.544,9.544,0,0,1-3.271-4.064l3.013-1.411a7.621,7.621,0,0,0,2.323,2.752,3.822,3.822,0,0,0,2.819.277,3.778,3.778,0,0,0,2.409-1.648,3.546,3.546,0,0,0,.436-2.856,3.153,3.153,0,0,0-1.419-2.083,8.4,8.4,0,0,0-1.541-.632,23.313,23.313,0,0,0-2.5-.62,11.056,11.056,0,0,1-4.218-1.438,5.926,5.926,0,0,1-2.409-5.438,5.425,5.425,0,0,1,.575-1.847,6.117,6.117,0,0,1,1.251-1.626,8.571,8.571,0,0,1,1.891-1.329l-.667-2.823Z" transform="translate(-2517.97 -86.749)"/></g></g><g transform="translate(210.251 20.834)"><g transform="translate(0 0)"><g class="b" transform="translate(2.102 0)"><g transform="translate(0)"><ellipse cx="26.832" cy="26.832" rx="26.832" ry="26.832" transform="translate(0 53.309) rotate(-83.401)"/></g></g><g transform="translate(0 1.802)"><ellipse class="c" cx="26.832" cy="26.832" rx="26.832" ry="26.832" transform="translate(0 53.309) rotate(-83.401)"/></g><g transform="translate(1.918 3.719)"><ellipse class="d" cx="22.772" cy="22.772" rx="22.772" ry="22.772" transform="matrix(0.967, -0.255, 0.255, 0.967, 0, 11.597)"/></g><g transform="translate(23.067 8.75)"><path class="e" d="M2467.457,126.238a22.776,22.776,0,0,1,3.132,44.283,22.774,22.774,0,1,0-3.132-44.283Z" transform="translate(-2467.457 -125.248)"/></g><g transform="translate(9.405 11.47)"><path class="f" d="M2431.412,169.829a20.1,20.1,0,0,1,14.687-35.115,20.1,20.1,0,1,0-5.411,39.75A20.008,20.008,0,0,1,2431.412,169.829Z" transform="translate(-2421.958 -134.307)"/></g><path class="g" d="M2453.147,164.034l2.174,1.921a6.107,6.107,0,0,1,2.757-1.376,8.836,8.836,0,0,1,3.409.189l-.7,3.231a3.862,3.862,0,0,0-4.029.982,3.118,3.118,0,0,0-.854,2.129,2.476,2.476,0,0,0,.873,1.918,2.367,2.367,0,0,0,1.769.636,10.07,10.07,0,0,0,3.032-.994,27.653,27.653,0,0,1,3.109-1.2,7.9,7.9,0,0,1,2.2-.4,6.2,6.2,0,0,1,4.379,1.639,6.988,6.988,0,0,1,2.327,4.072,7.307,7.307,0,0,1-.717,4.7l2.3,2.029-1.716,1.941-2.229-1.97a7.871,7.871,0,0,1-4.428,1.992,9.545,9.545,0,0,1-5.017-1.432l1.646-2.891a7.615,7.615,0,0,0,3.485.907,3.82,3.82,0,0,0,2.462-1.4,3.778,3.778,0,0,0,1.016-2.737,3.545,3.545,0,0,0-1.292-2.584,3.152,3.152,0,0,0-2.361-.882,8.356,8.356,0,0,0-1.624.373,23.238,23.238,0,0,0-2.4.934,11.054,11.054,0,0,1-4.274,1.259,5.928,5.928,0,0,1-5.106-3.052,5.424,5.424,0,0,1-.6-1.84,6.111,6.111,0,0,1,.084-2.05,8.587,8.587,0,0,1,.778-2.177l-2.174-1.921Z" transform="translate(-2433.177 -143.637)"/></g></g><g transform="translate(254.388 25.639)"><g transform="translate(0 0)"><g class="b" transform="translate(0)"><ellipse cx="26.832" cy="26.832" rx="26.832" ry="26.832" transform="translate(0 3.313) rotate(-3.539)"/></g><g transform="translate(2.702 0.601)"><ellipse class="c" cx="26.832" cy="26.832" rx="26.832" ry="26.832" transform="translate(0 3.313) rotate(-3.539)"/></g><g transform="translate(5.771 3.669)"><ellipse class="d" cx="22.772" cy="22.772" rx="22.772" ry="22.772" transform="translate(0 5.531) rotate(-6.975)"/></g><g transform="translate(16.679 6.869)"><path class="e" d="M2612.952,134.984a22.776,22.776,0,0,1-19.777,39.745,22.774,22.774,0,1,0,19.777-39.745Z" transform="translate(-2593.175 -134.984)"/></g><g transform="translate(10.817 8.842)"><path class="f" d="M2576.759,169.542a20.1,20.1,0,0,1,30.478-22.8,20.1,20.1,0,1,0-24.837,31.5A20.009,20.009,0,0,1,2576.759,169.542Z" transform="translate(-2573.654 -141.552)"/></g><path class="g" d="M2620.775,160.329l.9,2.759a6.11,6.11,0,0,1,3.074.214,8.843,8.843,0,0,1,2.842,1.893l-2.246,2.427a3.862,3.862,0,0,0-3.97-1.2,3.116,3.116,0,0,0-1.817,1.4,2.477,2.477,0,0,0-.221,2.1,2.368,2.368,0,0,0,1.2,1.446,10.072,10.072,0,0,0,3.117.683,27.614,27.614,0,0,1,3.289.541,7.9,7.9,0,0,1,2.1.771,6.2,6.2,0,0,1,2.942,3.635,6.989,6.989,0,0,1-.062,4.69,7.305,7.305,0,0,1-3,3.686l.948,2.914-2.463.8-.921-2.829a7.873,7.873,0,0,1-4.827-.531,9.541,9.541,0,0,1-3.6-3.78l2.886-1.655a7.616,7.616,0,0,0,2.542,2.551,3.821,3.821,0,0,0,2.832.044,3.78,3.78,0,0,0,2.265-1.842,3.548,3.548,0,0,0,.2-2.882,3.152,3.152,0,0,0-1.587-1.959,8.363,8.363,0,0,0-1.588-.5,23.34,23.34,0,0,0-2.539-.411,11.061,11.061,0,0,1-4.322-1.084,5.928,5.928,0,0,1-2.851-5.221,5.421,5.421,0,0,1,.421-1.888,6.108,6.108,0,0,1,1.113-1.724,8.549,8.549,0,0,1,1.775-1.481l-.9-2.759Z" transform="translate(-2592.395 -145.849)"/></g></g><path class="l" d="M2550.917,255.727,2545,250.609l3-9.609,8.107,3-1.2,5.705,1.03,1.8Z" transform="translate(-2288.398 -176.658)"/><g transform="translate(307.315 39.201)"><path class="l" d="M2764.729,220.663l6.515-.68a32.729,32.729,0,0,0-.381-5.2c1.808-.646,3.9-1.612,4.2-3.507a5.406,5.406,0,0,0-.116-1.8q-.658-3.692-1.315-7.383a6.6,6.6,0,0,0-.78-2.455,5.547,5.547,0,0,0-3.9-2.081,13.5,13.5,0,0,0-10.915,2.719,5.917,5.917,0,0,0-1.833,2.444,8.019,8.019,0,0,0,.293,4.681l1.139,4.249c.437,1.629,1.065,3.48,2.64,4.084.836.32,1.821.22,2.579.7C2764.2,217.266,2764.028,219.248,2764.729,220.663Z" transform="translate(-2743.327 -185.312)"/><path class="q" d="M2744.66,221.105l5.3,7.512-1.891-7.323Z" transform="translate(-2735.421 -201.939)"/><path class="q" d="M2713.9,168.138a20.986,20.986,0,0,1,.5-4.942c.563-2.65,3.677-3.861,6.379-4.066,5.835-.443,11.452-3.127,17.166-1.122,3.266,1.146,7.645,1.4,10.6,3.025a8.706,8.706,0,0,1,3,2.926,13.119,13.119,0,0,1,.108,13.872,18.715,18.715,0,0,1-2.028,2.584c-1.529,1.676-3.359,3.746-5.471,4.375-.061-1.893,1.633-7.87.171-9.414-2.32-2.45-7.532-1.564-10.39-.943-3.118.677-5.889,2.9-8.982,3.391-2.225.352-5.073-.726-6.973-1.867C2715,174.17,2713.995,171.19,2713.9,168.138Z" transform="translate(-2713.89 -157.274)"/></g><path class="l" d="M2445.807,401l.9,4.2-1.455,4.281-7.253-.077,1.351-5.1,6.155-1.651Z" transform="translate(-2213.527 -288.615)"/><path class="h" d="M1959,576.7c.5.211,12.611,9.008,12.912,9.008S1977.317,574,1977.317,574l5.1,2.4-5.405,18.917-3.6,1.2-13.512-6.906Z" transform="translate(-1878.357 -409.668)"/><path class="l" d="M1835.3,489.306l-.3-3.044,2.609-3.262,1.957,1.957-.87,2.392.207,1.056Z" transform="translate(-1791.59 -345.993)"/><path class="l" d="M2023.01,563.933,2023,559.6l3-.6,2.7,2.7-2.853,3.568Z" transform="translate(-1923.139 -399.173)"/><g class="b" transform="translate(322.361 125.675)"><path d="M2814.271,445.261l2.277,2.924-40.837,21.92h-2.4L2764,477.011l33.63-25.823Z" transform="translate(-2764 -445.261)"/></g><path class="g" d="M2797.611,276l12.011,6.306,18.016,45.941L2789.5,351.068l-4.5-6.606,24.922-23.421-16.215-32.729Z" transform="translate(-2456.333 -201.149)"/><path class="l" d="M2761.81,506l-6.906,3-3.9,8.408,3.9,2.1,10.138-8.491Z" transform="translate(-2432.542 -362.087)"/></g></svg>